# File created by Blade
# Date/Time:  Tue Jan 27 18:09:10 2015
# Frame Rate: 120.000 fps
#------------------------------------------------------
:FULLY-SPECIFIED
:DEGREES
3722
root -1.538200 31.893028 -6.717561 4.509694 -7.424274 1.684295
Spine -3.437910 -26.336994 -4.269611
Head 30.430995 27.927721 10.467671
LeftShoulder -17.166154 19.974551 5.414900
LeftArm 22.714874 38.479098 -74.153922
LeftForeArm -0.957979 -0.000000 14.989838
LeftHand -11.747172 -0.000000 -2.044934
LeftHandThumb1 -26.253704 0.000000 33.147579
RightShoulder -20.489365 -8.481691 -30.674336
RightArm 10.553113 -11.195916 28.644816
RightForeArm 11.689373 -0.000000 72.921090
RightHand -9.607093 -0.000000 17.879351
RightHandThumb1 -24.326973 -0.000000 -32.862282
LeftUpLeg 1.178315 9.316965 -0.457253
LeftLeg 0.580374 -0.000000 -0.000000
LeftFoot -20.660166 20.053874 -26.372743
LeftToeBase 8.766023 -0.000000 -0.000000
RightUpLeg -0.788525 5.407531 -3.261133
RightLeg -2.228857 -0.000000 0.000000
RightFoot -12.714452 -8.737129 9.016547
RightToeBase 4.686013 -0.000000 -0.000000
3723
root -1.542117 31.891813 -6.714166 4.505115 -7.451717 1.674301
Spine -3.460631 -26.315755 -4.261053
Head 30.338048 27.893594 10.514939
LeftShoulder -17.156088 19.943480 5.408931
LeftArm 22.728959 38.499080 -74.170848
LeftForeArm -0.959946 -0.000000 14.868131
LeftHand -11.786110 -0.000000 -2.111502
LeftHandThumb1 -26.253704 0.000000 33.147579
RightShoulder -20.472815 -8.388342 -30.668416
RightArm 10.081544 -9.645734 29.139405
RightForeArm 11.896802 -0.000000 73.242254
RightHand -9.720878 -0.000000 17.396121
RightHandThumb1 -24.326973 -0.000000 -32.862282
LeftUpLeg 1.202121 9.305118 -0.442030
LeftLeg 0.567314 -0.000000 -0.000000
LeftFoot -20.699808 20.074284 -26.405351
LeftToeBase 8.795028 -0.000000 -0.000000
RightUpLeg -0.782222 5.391697 -3.245099
RightLeg -2.224287 -0.000000 0.000000
RightFoot -12.721561 -8.692354 9.013531
RightToeBase 4.688982 -0.000000 -0.000000
3724
root -1.546103 31.890571 -6.711047 4.502647 -7.483408 1.665567
Spine -3.481104 -26.282458 -4.256871
Head 30.213746 27.858197 10.563395
LeftShoulder -17.154403 19.911690 5.396027
LeftArm 22.751494 38.526400 -74.167783
LeftForeArm -0.980316 -0.000000 14.771538
LeftHand -11.791575 -0.000000 -2.152789
LeftHandThumb1 -26.253704 0.000000 33.147579
RightShoulder -20.444189 -8.253364 -30.672441
RightArm 9.569072 -8.008819 29.659954
RightForeArm 11.959551 -0.000000 73.617932
RightHand -9.749727 0.000000 16.875694
RightHandThumb1 -24.326973 -0.000000 -32.862282
LeftUpLeg 1.219363 9.291519 -0.428123
LeftLeg 0.563758 -0.000000 -0.000000
LeftFoot -20.728614 20.085840 -26.413242
LeftToeBase 8.899012 -0.000000 -0.000000
RightUpLeg -0.769959 5.397953 -3.231220
RightLeg -2.238373 -0.000000 0.000000
RightFoot -12.720749 -8.676781 9.000005
RightToeBase 4.729076 -0.000000 -0.000000
3725
root -1.549177 31.889671 -6.708805 4.506293 -7.517638 1.661659
Spine -3.513187 -26.257685 -4.247086
Head 30.100394 27.829986 10.590861
LeftShoulder -17.164677 19.887254 5.369516
LeftArm 22.782044 38.552366 -74.152387
LeftForeArm -0.994349 -0.000000 14.707654
LeftHand -12.056997 -0.000000 -2.106467
LeftHandThumb1 -26.253704 0.000000 33.147579
RightShoulder -20.385355 -8.083876 -30.682698
RightArm 9.022835 -6.295807 30.157867
RightForeArm 12.071139 0.000000 74.077181
RightHand -9.819890 -0.000000 16.706689
RightHandThumb1 -24.326973 -0.000000 -32.862282
LeftUpLeg 1.222770 9.276534 -0.426356
LeftLeg 0.569273 -0.000000 -0.000000
LeftFoot -20.782470 20.141753 -26.483248
LeftToeBase 8.797631 -0.000000 -0.000000
RightUpLeg -0.776183 5.360701 -3.223751
RightLeg -2.235132 -0.000000 0.000000
RightFoot -12.718331 -8.606563 8.979231
RightToeBase 4.696821 -0.000000 -0.000000
